HIERARCHY
ROOT Hips
{
  OFFSET -69.4423 88.0299 51.6846
  CHANNELS 6 Xposition Yposition Zposition Zrotation Xrotation Yrotation
  JOINT Spine
  {
    OFFSET 12.0259 -0.162853 1.93176e-005
    CHANNELS 3 Zrotation Xrotation Yrotation
    JOINT Spine1
    {
      OFFSET 15.3169 -0.0121909 0
      CHANNELS 3 Zrotation Xrotation Yrotation
      JOINT Spine2
      {
        OFFSET 15.3176 -0.0121922 0
        CHANNELS 3 Zrotation Xrotation Yrotation
        JOINT Neck
        {
          OFFSET 19.9142 1.56236 0
          CHANNELS 3 Zrotation Xrotation Yrotation
          JOINT Head
          {
            OFFSET 6.92646 0 0
            CHANNELS 3 Zrotation Xrotation Yrotation
            End Site
            {
              OFFSET 20.7666 0 0
            }
          }
          JOINT LeftShoulder
          {
            OFFSET -4.94072 -1.14703 8.14416
            CHANNELS 3 Zrotation Xrotation Yrotation
            JOINT LeftArm
            {
              OFFSET 14.108 0 -2.74767e-005
              CHANNELS 3 Zrotation Xrotation Yrotation
              JOINT LeftForeArm
              {
                OFFSET 28.5802 -0.0783412 -0.0284884
                CHANNELS 3 Zrotation Xrotation Yrotation
                JOINT LeftHand
                {
                  OFFSET 27.092 0 0
                  CHANNELS 3 Zrotation Xrotation Yrotation
                  End Site
                  {
                    OFFSET 9.55928 -0.186424 0.145352
                  }
                }
              }
            }
          }
          JOINT RightShoulder
          {
            OFFSET -7.15748 -1.33027 -6.24935
            CHANNELS 3 Zrotation Xrotation Yrotation
            JOINT RightArm
            {
              OFFSET 14.108 0 1.82997e-005
              CHANNELS 3 Zrotation Xrotation Yrotation
              JOINT RightForeArm
              {
                OFFSET 28.5802 -0.0707221 2.30684e-005
                CHANNELS 3 Zrotation Xrotation Yrotation
                JOINT RightHand
                {
                  OFFSET 27.092 0 -1.30073e-005
                  CHANNELS 3 Zrotation Xrotation Yrotation
                  End Site
                  {
                    OFFSET 9.55929 -0.186417 -0.145354
                  }
                }
              }
            }
          }
        }
      }
    }
  }
  JOINT LeftUpLeg
  {
    OFFSET 0.00499725 -0.534999 8.837
    CHANNELS 3 Zrotation Xrotation Yrotation
    JOINT LeftLeg
    {
      OFFSET 39.9035 -0.00124594 0.000252775
      CHANNELS 3 Zrotation Xrotation Yrotation
      JOINT LeftFoot
      {
        OFFSET 39.6689 0 0
        CHANNELS 3 Zrotation Xrotation Yrotation
        JOINT LeftToe
        {
          OFFSET 10.1624 13.6296 0
          CHANNELS 3 Zrotation Xrotation Yrotation
          End Site
          {
            OFFSET 8.38147 0 0
          }
        }
      }
    }
  }
  JOINT RightUpLeg
  {
    OFFSET 0.00499725 -0.535 -8.837
    CHANNELS 3 Zrotation Xrotation Yrotation
    JOINT RightLeg
    {
      OFFSET 39.9036 -0.000268477 0.000106433
      CHANNELS 3 Zrotation Xrotation Yrotation
      JOINT RightFoot
      {
        OFFSET 39.6689 1.17892e-005 0
        CHANNELS 3 Zrotation Xrotation Yrotation
        JOINT RightToe
        {
          OFFSET 10.1624 13.6296 0
          CHANNELS 3 Zrotation Xrotation Yrotation
          End Site
          {
            OFFSET 8.38147 0 0
          }
        }
      }
    }
  }
}
MOTION
Frames:	6
Frame Time:	0.0333333
86.4852 88.288 -62.3879 94.5713 7.5893 -0.222392 0.171928 -0.328959 0.331501 0.345765 -0.656358 0.664159 0.345756 -0.656372 0.664149 -18.8619 3.15987 -7.80534 37.9062 7.64091 7.755 -161.328 1.77071 -94.4062 -70.995 -3.04648 70.9895 -111.195 45.2427 -31.4437 -179.829 -69.3912 -178.931 -162.607 -0.679278 77.0639 -19.4071 -6.47172 -85.7569 -25.0367 -3.16347 15.2416 5.09217 85.4813 -5.00622 -8.64624 -0.665023 178.971 -22.0771 0.933284 -1.22661 7.24806 3.85638 0.746859 90 -3.57812e-015 -2.38542e-015 -12.3139 -1.44501 -175.649 -33.3654 -0.59351 0.189173 8.70393 5.36441 -0.913113 90 1.59028e-015 -3.97569e-016 
86.3248 88.247 -62.4949 94.5773 7.30457 0.0173993 0.167363 -0.295815 0.385931 0.336738 -0.590036 0.772911 0.336737 -0.590032 0.772908 -18.8138 2.41986 -8.63299 40.713 5.93187 8.20819 -161.544 0.740132 -94.9293 -65.5633 -2.0496 74.8296 -107.195 43.0048 -32.1569 -179.624 -72.8699 -178.662 -162.739 -1.52587 76.4672 -17.2873 -5.85684 -85.1703 -24.3402 -3.00801 14.8672 3.92905 84.2342 -3.80543 -8.4531 -0.350043 178.853 -21.9359 0.942566 -1.22623 7.35894 3.83654 0.743144 90 -7.95139e-016 -3.97569e-016 -12.3473 -0.990322 -175.734 -33.5798 -0.593297 0.185804 9.01224 5.41488 -0.959096 90 1.19271e-014 1.07344e-014 
86.0816 88.1769 -62.5431 94.6118 6.69086 0.427161 0.0701233 -0.288422 0.346019 0.142 -0.575951 0.692574 0.141991 -0.575983 0.692565 -18.0469 1.87849 -9.32075 43.843 4.69283 8.61564 -162.471 0.0616976 -95.4074 -59.3947 0.17798 78.5032 -102.312 40.1017 -32.6918 -179.611 -74.2003 -178.562 -163.569 -2.03318 75.964 -15.2058 -5.24463 -85.082 -23.7437 -2.87593 14.5449 3.21896 82.9631 -3.06816 -8.19087 0.539547 178.619 -21.9584 0.938234 -1.21441 7.76439 4.08444 0.731148 90 -9.14409e-015 -9.54166e-015 -12.4142 -1.23327 -176.24 -33.9876 -0.593074 0.17241 9.38849 4.69585 -1.03014 90 -3.18055e-015 -3.97569e-015 
85.9938 88.1235 -62.8352 94.4684 6.78388 0.539936 0.0724474 -0.365419 0.340745 0.147363 -0.729905 0.710872 0.147361 -0.729921 0.710858 -17.347 1.15008 -10.3146 46.8681 3.08174 9.33345 -163.369 -0.850279 -96.1445 -53.1838 2.06647 81.2473 -96.1953 35.8708 -32.7932 -179.373 -76.1774 -178.207 -164.407 -2.82717 75.2327 -15.5516 -5.68446 -85.0256 -24.6096 -3.07202 15.0152 3.54917 84.0517 -3.42052 -8.09283 0.244581 178.695 -22.0134 0.932723 -1.2134 7.70375 3.56513 0.725858 90 -1.66979e-014 -1.63003e-014 -12.5391 -0.637915 -175.912 -34.4359 -0.593362 0.166526 9.59399 5.23862 -1.05211 90 -4.77083e-015 -3.97569e-015 
85.7582 88.0552 -63.0384 94.27 6.56671 0.655505 0.110711 -0.328957 0.357085 0.223494 -0.656737 0.71499 0.223476 -0.656719 0.71498 -16.2235 0.41898 -11.5259 49.3277 1.97069 10.7411 -164.717 -1.7411 -97.0822 -47.3132 3.65458 83.2751 -89.1839 30.1829 -32.0752 -178.689 -81.3792 -177.317 -165.665 -3.62973 74.2334 -14.5183 -5.36163 -85.1539 -24.8475 -3.13941 15.1573 3.73781 83.987 -3.61861 -7.89587 -1.12494 178.8 -22.3803 0.936604 -1.19562 7.2341 4.33709 0.724084 90 -2.72335e-014 -2.6339e-014 -12.292 -0.506875 -175.8 -34.6547 -0.594678 0.16243 9.84127 5.29896 -1.0875 90 1.59028e-015 7.95139e-016 
85.5298 87.9313 -63.3101 94.0435 6.45773 0.537815 0.229599 -0.485786 0.466555 0.463191 -0.969263 0.935263 0.463187 -0.969263 0.935258 -15.6714 0.20036 -12.0297 51.6484 1.0692 10.6141 -165.449 -1.89805 -97.4301 -41.4335 4.13111 84.5678 -81.338 22.5735 -31.5135 -176.961 -84.9744 -175.244 -166.232 -3.82439 73.744 -14.9335 -5.37795 -84.9193 -25.5592 -3.31149 15.5443 4.00063 84.2693 -3.88168 -8.35 -1.69938 178.992 -23.8987 0.945507 -1.15419 7.6199 3.84951 0.724281 90 -3.97569e-015 -3.36692e-015 -11.812 -0.690524 -175.533 -34.4744 -0.597542 0.156632 10.0199 4.95516 -1.11813 90 2.38542e-015 2.38542e-015 
